HIERARCHY
ROOT Hips
{
	OFFSET 0.000000 0.000000 0.000000
	CHANNELS 6 Xposition Yposition Zposition Zrotation Yrotation Xrotation 
	JOINT LHipJoint
	{
		OFFSET 0.000000 0.000000 0.000000
		CHANNELS 3 Zrotation Yrotation Xrotation
		JOINT LeftUpLeg
		{
			OFFSET 1.363060 -1.794630 0.839290
			CHANNELS 3 Zrotation Yrotation Xrotation
			JOINT LeftLeg
			{
				OFFSET 2.448110 -6.726130 0.000000
				CHANNELS 3 Zrotation Yrotation Xrotation
				JOINT LeftFoot
				{
					OFFSET 2.562200 -7.039590 0.000000
					CHANNELS 3 Zrotation Yrotation Xrotation
					JOINT LeftToeBase
					{
						OFFSET 0.157640 -0.433110 2.322550
						CHANNELS 3 Zrotation Yrotation Xrotation
						End Site
						{
							OFFSET 0.000000 0.000000 0.000000
						}
					}
				}
			}
		}
	}
	JOINT RHipJoint
	{
		OFFSET 0.000000 0.000000 0.000000
		CHANNELS 3 Zrotation Yrotation Xrotation
		JOINT RightUpLeg
		{
			OFFSET -1.305520 -1.794630 0.839290
			CHANNELS 3 Zrotation Yrotation Xrotation
			JOINT RightLeg
			{
				OFFSET -2.542530 -6.985550 0.000000
				CHANNELS 3 Zrotation Yrotation Xrotation
				JOINT RightFoot
				{
					OFFSET -2.568260 -7.056230 0.000000
					CHANNELS 3 Zrotation Yrotation Xrotation
					JOINT RightToeBase
					{
						OFFSET -0.164730 -0.452590 2.363150
						CHANNELS 3 Zrotation Yrotation Xrotation
						End Site
						{
							OFFSET 0.000000 0.000000 0.000000
						}
					}
				}
			}
		}
	}
	JOINT LowerBack
	{
		OFFSET 0.000000 0.000000 0.000000
		CHANNELS 3 Zrotation Yrotation Xrotation
		JOINT Spine
		{
			OFFSET 0.028270 2.035590 -0.193380
			CHANNELS 3 Zrotation Yrotation Xrotation
			JOINT Spine1
			{
				OFFSET 0.056720 2.048850 -0.042750
				CHANNELS 3 Zrotation Yrotation Xrotation
				JOINT Neck
				{
					OFFSET 0.000000 0.000000 0.000000
					CHANNELS 3 Zrotation Yrotation Xrotation
					JOINT Neck1
					{
						OFFSET -0.054170 1.746240 0.172020
						CHANNELS 3 Zrotation Yrotation Xrotation
						JOINT Head
						{
							OFFSET 0.104070 1.761360 -0.123970
							CHANNELS 3 Zrotation Yrotation Xrotation
							End Site
							{
								OFFSET 0.000000 0.000000 0.000000
							}
						}
					}
				}
				JOINT LeftShoulder
				{
					OFFSET 0.000000 0.000000 0.000000
					CHANNELS 3 Zrotation Yrotation Xrotation
					JOINT LeftArm
					{
						OFFSET 3.362410 1.200890 -0.311210
						CHANNELS 3 Zrotation Yrotation Xrotation
						JOINT LeftForeArm
						{
							OFFSET 4.983000 -0.000000 -0.000000
							CHANNELS 3 Zrotation Yrotation Xrotation
							JOINT LeftHand
							{
								OFFSET 3.483560 -0.000000 -0.000000
								CHANNELS 3 Zrotation Yrotation Xrotation
								JOINT LeftFingerBase
								{
									OFFSET 0.000000 0.000000 0.000000
									CHANNELS 3 Zrotation Yrotation Xrotation
									JOINT LeftHandIndex1
									{
										OFFSET 0.715260 -0.000000 -0.000000
										CHANNELS 3 Zrotation Yrotation Xrotation
										End Site
										{
											OFFSET 0.000000 0.000000 0.000000
										}
									}
								}
								JOINT LThumb
								{
									OFFSET 0.000000 0.000000 0.000000
									CHANNELS 3 Zrotation Yrotation Xrotation
									End Site
									{
										OFFSET 0.000000 0.000000 0.000000
									}
								}
							}
						}
					}
				}
				JOINT RightShoulder
				{
					OFFSET 0.000000 0.000000 0.000000
					CHANNELS 3 Zrotation Yrotation Xrotation
					JOINT RightArm
					{
						OFFSET -3.136600 1.374050 -0.404650
						CHANNELS 3 Zrotation Yrotation Xrotation
						JOINT RightForeArm
						{
							OFFSET -5.241900 -0.000000 -0.000000
							CHANNELS 3 Zrotation Yrotation Xrotation
							JOINT RightHand
							{
								OFFSET -3.444170 -0.000000 -0.000000
								CHANNELS 3 Zrotation Yrotation Xrotation
								JOINT RightFingerBase
								{
									OFFSET 0.000000 0.000000 0.000000
									CHANNELS 3 Zrotation Yrotation Xrotation
									JOINT RightHandIndex1
									{
										OFFSET -0.622530 -0.000000 -0.000000
										CHANNELS 3 Zrotation Yrotation Xrotation
										End Site
										{
											OFFSET 0.000000 0.000000 0.000000
										}
									}
								}
								JOINT RThumb
								{
									OFFSET 0.000000 0.000000 0.000000
									CHANNELS 3 Zrotation Yrotation Xrotation
									End Site
									{
										OFFSET 0.000000 0.000000 0.000000
									}
								}
							}
						}
					}
				}
			}
		}
	}
}
MOTION
Frames: 5
Frame Time: 0.008333
10.204509 17.859069 49.383224 -178.426437 -5.311240 178.696599 -1.157309 3.589811 1.734065 -18.094602 -23.903306 -1.186095 -2.451331 8.273054 23.500462 -4.416368 14.075891 -5.296528 2.298100 -9.461200 -27.248800 -3.288553 -3.348825 0.703970 24.107583 14.193119 -2.438978 1.886562 -8.378706 26.125507 6.327554 -23.317694 -18.368248 -0.083000 -1.858800 5.115500 8.857081 2.783330 4.587437 -2.196694 4.397683 1.625888 -8.345532 1.323880 -10.375029 9.046886 16.218327 -8.616765 4.188572 21.084228 10.014833 -1.654200 10.964500 4.690400 -1.502366 -10.174694 1.540383 -85.656327 8.301360 37.634088 25.111998 -25.111920 -7.110337 1.464289 1.015126 9.559925 8.297391 -31.957103 -3.887000 -7.125000 0.000000 0.000000 -13.971100 -2.677600 15.054900 0.614821 11.507131 2.521251 91.485192 -9.204342 43.441186 -20.094802 22.915047 -5.694951 1.197628 0.414274 17.588418 -2.812639 -54.767952 3.149200 7.125000 0.000000 0.000000 78.519500 -73.269100 -60.925000 
10.204509 17.855887 49.383224 -178.456525 -5.377329 178.610538 -1.123718 3.605696 1.761660 -18.193049 -23.876024 -1.128584 -2.445714 8.272159 23.518048 -4.431035 14.109663 -5.264491 2.497500 -9.833400 -28.439000 -3.254605 -3.364717 0.744699 24.049098 14.157013 -2.398660 1.879935 -8.380125 26.143578 6.395941 -23.508882 -18.411963 -0.074800 -1.764200 4.854500 8.478967 2.552404 4.517212 -1.583700 4.074675 1.979570 -8.022865 1.206654 -10.362018 8.250222 16.438268 -9.035881 4.368465 21.407783 10.109008 -1.458300 11.110300 4.705000 -1.564379 -10.200225 1.513148 -86.143086 8.072654 37.078293 25.109248 -25.103632 -7.114059 1.455872 1.029233 9.336653 8.460614 -32.206359 -4.008500 -7.125000 0.000000 0.000000 -13.893300 -2.950200 15.029700 0.585481 11.515782 2.554300 90.671304 -9.131470 44.451580 -20.369897 23.208495 -5.779042 1.216067 0.371892 17.380140 -4.827201 -53.773008 4.777200 7.125000 0.000000 0.000000 74.186600 -73.796700 -57.383300 
10.203095 17.857773 49.379807 -178.310592 -5.348291 178.624021 -1.003415 3.600376 1.777498 -18.173041 -23.879084 -1.172524 -2.433310 8.265716 23.553946 -4.464630 14.172283 -5.295427 2.761400 -10.298500 -29.948700 -3.113881 -3.378125 0.835542 23.996107 14.160429 -2.521225 1.885724 -8.382332 26.103323 6.372202 -23.393270 -18.255692 -0.072200 -1.733400 4.769500 7.496855 1.955225 4.070791 0.746712 3.188705 2.579307 -7.170554 0.878183 -10.227307 5.494724 17.190856 -9.465361 4.746149 22.528659 10.075734 -0.975800 11.589600 4.534600 -1.824399 -10.349727 1.417604 -88.424014 7.518104 33.857107 25.007979 -24.969299 -7.049126 1.487585 1.018976 10.137056 8.279074 -32.379457 -3.917600 -7.125000 0.000000 0.000000 -14.011300 -3.105300 15.201600 0.496431 11.496934 2.692505 88.058518 -8.808258 47.485656 -20.494458 23.321898 -5.868976 1.225068 0.345749 16.588265 -4.771727 -53.911653 4.759300 7.125000 0.000000 0.000000 74.533600 -73.807800 -57.725000 
10.201445 17.855062 49.376743 -178.229889 -5.377329 178.566073 -0.992864 3.616612 1.785407 -18.125656 -23.939634 -1.095076 -2.431789 8.260881 23.550763 -4.466899 14.172556 -5.278910 2.855300 -10.457100 -30.470000 -3.113206 -3.384062 0.841488 24.080545 14.090895 -2.485977 1.876209 -8.389519 26.146198 6.263242 -23.097657 -18.217112 -0.085600 -1.887000 5.193300 7.610122 1.918772 4.083174 0.854938 3.153333 2.605304 -7.219788 0.852370 -10.235941 5.351125 17.208673 -9.456284 4.841189 22.546399 10.167307 -0.930800 11.604700 4.541200 -1.834025 -10.359004 1.415893 -88.529611 7.551736 33.851812 25.025436 -24.982170 -7.051895 1.485535 1.012843 10.108885 8.220514 -32.180360 -3.863600 -7.125000 0.000000 0.000000 -14.031300 -2.896800 15.175600 0.497743 11.497903 2.686707 88.029475 -8.666698 47.508488 -20.233239 23.004608 -5.757246 1.237044 0.339671 16.697251 -4.903278 -53.782715 4.868400 7.125000 0.000000 0.000000 74.027600 -73.830600 -57.272100 
10.201916 17.855062 49.375093 -178.210960 -5.332089 178.629259 -0.993891 3.609600 1.774114 -18.089479 -23.991040 -1.112400 -2.440912 8.246090 23.507639 -4.467636 14.171097 -5.299737 2.824900 -10.406100 -30.302200 -3.105935 -3.375573 0.834766 24.079277 14.153032 -2.556910 1.867510 -8.410848 26.181807 6.236168 -22.996044 -18.110487 -0.104000 -2.079700 5.725800 7.563523 1.940165 4.039086 0.951975 3.172118 2.546255 -7.188335 0.862977 -10.218245 5.351913 17.210293 -9.311063 4.755141 22.553541 10.115161 -0.969200 11.602400 4.518100 -1.850197 -10.365581 1.415004 -88.605346 7.532654 33.845210 24.970568 -24.921894 -7.029350 1.489350 1.017357 10.116772 8.222727 -32.289172 -3.875100 -7.125000 0.000000 0.000000 -14.038000 -3.007900 15.209500 0.496256 11.496197 2.690142 87.993588 -8.665507 47.465962 -20.193051 22.953612 -5.739192 1.238951 0.336943 16.790515 -4.811151 -53.748982 4.792600 7.125000 0.000000 0.000000 73.954800 -73.790600 -57.157000 
